<svg width="123.976318" height="124.000000" viewBox="0 0 123.976 124" fill="none" xmlns="http://www.w3.org/2000/svg" xmlns:xlink="http://www.w3.org/1999/xlink">
	<desc>
			Created with Pixso.
	</desc>
	<defs/>
	<path id="Vector" d="M14.77 0.08C16.35 -0.08 18.04 0.04 19.63 0.04L29.47 0.04L61.67 0.04L93.78 0.04L103.39 0.04C105.43 0.04 107.52 -0.06 109.54 0.18C109.73 0.2 109.91 0.22 110.1 0.25C110.29 0.28 110.47 0.31 110.66 0.34C110.84 0.38 111.02 0.41 111.21 0.45C111.39 0.5 111.57 0.54 111.76 0.59C111.94 0.63 112.12 0.68 112.3 0.74C112.48 0.79 112.66 0.85 112.84 0.9C113.02 0.96 113.19 1.03 113.37 1.09C113.54 1.16 113.72 1.23 113.89 1.3C114.07 1.37 114.24 1.44 114.41 1.52C114.58 1.6 114.75 1.68 114.92 1.76C115.09 1.85 115.26 1.93 115.42 2.02C115.59 2.11 115.75 2.2 115.91 2.3C116.07 2.39 116.23 2.49 116.39 2.59C116.55 2.69 116.71 2.8 116.86 2.9C117.02 3.01 117.17 3.12 117.32 3.23C117.48 3.34 117.62 3.45 117.77 3.57C121 6.07 123.3 10.01 123.8 14.07C124.06 16.16 123.95 18.33 123.95 20.44L123.94 29.87L123.92 61.89L123.93 94.19L123.93 104.04C123.93 105.87 124.04 107.81 123.83 109.63C123.81 109.82 123.78 110 123.76 110.18C123.73 110.37 123.7 110.55 123.66 110.73C123.63 110.91 123.59 111.09 123.55 111.27C123.51 111.45 123.47 111.63 123.42 111.81C123.38 111.99 123.33 112.17 123.28 112.35C123.22 112.53 123.17 112.7 123.11 112.88C123.05 113.05 122.99 113.23 122.92 113.4C122.86 113.57 122.79 113.74 122.72 113.92C122.65 114.09 122.58 114.26 122.5 114.42C122.42 114.59 122.34 114.76 122.26 114.92C122.18 115.09 122.09 115.25 122 115.42C121.92 115.58 121.82 115.74 121.73 115.9C121.64 116.06 121.54 116.22 121.44 116.37C121.34 116.53 121.24 116.68 121.13 116.83C121.03 116.99 120.92 117.14 120.81 117.29C120.7 117.43 120.59 117.58 120.47 117.72C117.9 120.99 113.92 123.33 109.77 123.82C109.66 123.84 109.55 123.85 109.44 123.87C107.37 124.07 105.23 123.97 103.15 123.97L92.9 123.95L60.39 123.97L29.13 123.94L19.67 123.94C17.73 123.93 15.72 124.04 13.8 123.79C10.88 123.43 7.95 122.18 5.7 120.27C5.6 120.19 5.5 120.1 5.4 120.01C5.31 119.93 5.21 119.84 5.11 119.75C5.01 119.66 4.92 119.57 4.82 119.48C4.73 119.38 4.64 119.29 4.54 119.2C4.45 119.1 4.36 119.01 4.27 118.91C4.18 118.81 4.09 118.72 4.01 118.62C3.92 118.52 3.83 118.42 3.75 118.32C3.66 118.22 3.58 118.12 3.5 118.01C3.41 117.91 3.33 117.81 3.25 117.7C3.17 117.6 3.1 117.49 3.02 117.38C2.94 117.28 2.87 117.17 2.79 117.06C2.72 116.95 2.64 116.84 2.57 116.73C2.5 116.62 2.43 116.51 2.36 116.39C2.29 116.28 2.23 116.17 2.16 116.05C2.09 115.94 2.03 115.83 1.97 115.71C1.9 115.59 1.84 115.48 1.78 115.36C1.72 115.24 1.66 115.12 1.61 115.01C1.55 114.89 1.49 114.77 1.44 114.65C1.39 114.53 1.33 114.41 1.28 114.29C1.23 114.16 1.18 114.04 1.13 113.92C1.08 113.8 1.04 113.67 0.99 113.55C0.95 113.43 0.9 113.3 0.86 113.18C0.82 113.05 0.78 112.93 0.74 112.8C0.7 112.67 0.67 112.55 0.63 112.42C0.59 112.29 0.56 112.17 0.53 112.04C0.5 111.91 0.47 111.78 0.44 111.65C0.41 111.52 0.38 111.4 0.35 111.27C0.33 111.14 0.3 111.01 0.28 110.88C0.26 110.75 0.24 110.62 0.22 110.49C0.2 110.36 0.18 110.23 0.16 110.1C0.15 109.96 0.13 109.83 0.12 109.7C0.11 109.57 0.1 109.44 0.09 109.31C-0.08 107.17 0.03 104.96 0.04 102.81L0.04 90.94L0.04 54.24L0.03 26.99L0.02 18.73C0.02 17.16 -0.08 15.5 0.11 13.95C0.14 13.76 0.17 13.57 0.2 13.38C0.23 13.19 0.26 13 0.3 12.81C0.34 12.62 0.38 12.43 0.43 12.24C0.47 12.06 0.52 11.87 0.57 11.68C0.62 11.5 0.68 11.31 0.74 11.13C0.8 10.95 0.86 10.76 0.92 10.58C0.99 10.4 1.06 10.22 1.13 10.04C1.2 9.86 1.27 9.68 1.35 9.51C1.43 9.33 1.51 9.16 1.6 8.98C1.68 8.81 1.77 8.64 1.86 8.47C1.95 8.3 2.04 8.13 2.14 7.96C2.24 7.79 2.34 7.63 2.44 7.47C2.54 7.3 2.65 7.14 2.76 6.98C2.87 6.82 2.98 6.67 3.09 6.51C3.21 6.36 3.33 6.2 3.45 6.05C3.57 5.9 3.69 5.75 3.82 5.61C3.9 5.51 3.99 5.41 4.08 5.31C4.16 5.21 4.25 5.12 4.34 5.02C4.43 4.93 4.52 4.83 4.62 4.74C4.71 4.65 4.8 4.55 4.9 4.46C4.99 4.37 5.09 4.28 5.19 4.19C5.28 4.11 5.38 4.02 5.48 3.93C5.58 3.85 5.68 3.76 5.78 3.68C5.88 3.6 5.98 3.51 6.09 3.43C6.19 3.35 6.29 3.27 6.4 3.19C6.51 3.12 6.61 3.04 6.72 2.96C6.83 2.89 6.93 2.81 7.04 2.74C7.15 2.67 7.26 2.59 7.37 2.52C7.48 2.45 7.59 2.39 7.71 2.32C7.82 2.25 7.93 2.18 8.05 2.12C8.16 2.05 8.28 1.99 8.39 1.93C8.51 1.87 8.62 1.81 8.74 1.75C8.86 1.69 8.98 1.63 9.09 1.57C9.21 1.52 9.33 1.46 9.45 1.41C9.57 1.36 9.69 1.3 9.81 1.25C9.93 1.2 10.06 1.16 10.18 1.11C10.3 1.06 10.42 1.01 10.55 0.97C10.67 0.93 10.8 0.88 10.92 0.84C11.04 0.8 11.17 0.76 11.29 0.72C11.42 0.68 11.55 0.65 11.67 0.61C11.8 0.58 11.93 0.54 12.05 0.51C12.18 0.48 12.31 0.45 12.44 0.42C12.56 0.39 12.69 0.37 12.82 0.34C12.95 0.31 13.08 0.29 13.21 0.27C13.34 0.25 13.47 0.22 13.6 0.21C13.73 0.19 13.86 0.17 13.99 0.15C14.12 0.14 14.25 0.12 14.38 0.11C14.51 0.1 14.64 0.09 14.77 0.08Z" fill="#3D84A8" fill-opacity="1.000000" fill-rule="nonzero"/>
	<path id="Vector" d="M106.72 16.78C107.66 17.18 110.5 20.17 111.17 21.06C111.36 21.31 111.54 21.57 111.69 21.85C111.85 22.12 111.98 22.4 112.1 22.69C112.42 23.48 112.57 24.26 112.6 25.11C112.67 26.87 112.61 28.66 112.61 30.42L112.61 40.12L112.62 68.39L112.6 94.19L112.61 102.04C112.61 103.47 112.67 104.93 112.61 106.36C112.57 107.22 112.41 108.03 112.07 108.83C111.32 110.63 109.77 112.08 107.97 112.8C107.12 113.14 106.23 113.3 105.32 113.34C103.75 113.42 102.16 113.36 100.59 113.36L92.59 113.35L67.26 113.35L39.44 113.34L31.01 113.35C29.46 113.36 27.89 113.41 26.35 113.35C25.23 113.31 24.13 113.1 23.1 112.65C22.62 112.44 22.09 112.2 21.66 111.89C21.16 111.53 18.08 108.62 17.94 108.22C17.92 108.18 17.92 108.15 17.91 108.11C19.31 109.02 20.7 109.53 22.37 109.59C24.21 109.66 26.07 109.6 27.91 109.6L39.22 109.62L73.67 109.63L92.71 109.62L98.27 109.63C99.54 109.63 100.84 109.69 102.1 109.52C103.83 109.29 105.45 108.47 106.73 107.28C108.53 105.6 109.35 103.37 109.41 100.94C109.47 98.86 109.41 96.76 109.4 94.68L109.39 84.08L109.41 49.01L109.4 31.03L109.41 25.68C109.41 24.31 109.46 22.91 109.27 21.55C108.99 19.67 108.01 18.13 106.72 16.78Z" fill="#48466D" fill-opacity="1.000000" fill-rule="nonzero"/>
	<path id="Vector" d="M17.91 108.11C16.17 106.75 14.91 105.08 14.64 102.83C14.47 101.41 14.56 99.91 14.56 98.48L14.56 91.22L14.56 66.43L14.56 35.94L14.55 26.88C14.54 25.21 14.43 23.46 14.58 21.79C14.6 21.6 14.63 21.41 14.66 21.22C14.69 21.02 14.73 20.83 14.78 20.64C14.82 20.46 14.88 20.27 14.94 20.08C15 19.9 15.06 19.72 15.14 19.54C15.21 19.36 15.29 19.18 15.38 19.01C15.46 18.83 15.56 18.66 15.65 18.49C15.75 18.33 15.86 18.16 15.97 18C16.08 17.84 16.2 17.69 16.32 17.54C17.59 15.94 19.48 14.79 21.52 14.58C23.02 14.43 24.6 14.52 26.11 14.52L34.4 14.52L61.86 14.52L89.06 14.53L97.27 14.52C98.86 14.52 100.53 14.42 102.11 14.61C103.91 14.82 105.34 15.66 106.72 16.78C108.01 18.13 108.99 19.67 109.27 21.55C109.46 22.91 109.41 24.31 109.41 25.68L109.4 31.03L109.41 49.01L109.39 84.08L109.4 94.68C109.41 96.76 109.47 98.86 109.41 100.94C109.35 103.37 108.53 105.6 106.73 107.28C105.45 108.47 103.83 109.29 102.1 109.52C100.84 109.69 99.54 109.63 98.27 109.63L92.71 109.62L73.67 109.63L39.22 109.62L27.91 109.6C26.07 109.6 24.21 109.66 22.37 109.59C20.7 109.53 19.31 109.02 17.91 108.11Z" fill="#46CDCF" fill-opacity="1.000000" fill-rule="nonzero"/>
	<path id="Vector" d="M98.02 42.86C99.19 44.01 100.34 45.18 101.54 46.3C99.51 48.48 97.6 50.79 95.66 53.05C92.62 56.59 89.55 60.11 86.46 63.61L69.53 83.02C66.03 87.06 62.46 91.06 59.05 95.18C57.73 93.8 56.32 92.49 55.01 91.1C56.38 89.71 57.68 88.25 59 86.81C61.96 83.56 64.9 80.3 67.82 77.03C77.98 65.72 88.05 54.33 98.02 42.86Z" fill="#3D84A8" fill-opacity="1.000000" fill-rule="nonzero"/>
	<path id="Vector" d="M84.6 29.45C85.44 30.32 86.33 31.15 87.19 32.01C90.79 35.63 94.46 39.19 98.02 42.86C88.05 54.33 77.98 65.72 67.82 77.03C64.9 80.3 61.96 83.56 59 86.81C57.68 88.25 56.38 89.71 55.01 91.1C52.92 88.98 50.8 86.88 48.68 84.79L33.04 69.26C30.47 66.72 27.83 64.21 25.33 61.6L38.83 46.86C40.42 48.55 42.07 50.17 43.69 51.83L54.61 62.96C60.98 55.96 67.29 48.92 73.55 41.83L80.58 34.01C81.93 32.5 83.34 31.02 84.6 29.45Z" fill="#48466D" fill-opacity="1.000000" fill-rule="nonzero"/>
	<path id="Vector" d="M39.15 54.55C42.26 57.78 45.4 60.98 48.56 64.15C49.87 65.44 51.17 66.74 52.47 68.05C53.23 68.82 54.04 69.58 54.71 70.42C54.49 71.33 54.63 72.57 54.63 73.51L54.63 80.19C54.63 81.26 54.71 82.39 54.61 83.45C54.44 83.4 50.22 79.11 49.77 78.65L37.94 66.84C36.13 65.03 34.23 63.28 32.49 61.41C34.73 59.14 36.95 56.85 39.15 54.55Z" fill="#08E3BF" fill-opacity="1.000000" fill-rule="nonzero"/>
	<path id="Vector" d="M54.71 70.42C56.86 68.14 58.94 65.79 61.06 63.48C65.75 58.41 70.4 53.29 75 48.14C77.39 45.42 79.8 42.71 82.22 40.02C83.05 39.09 83.86 38.11 84.72 37.21C86.83 39.07 88.72 41.17 90.86 43C83.08 51.94 75.19 60.78 67.21 69.53L59.19 78.37C57.66 80.05 56.04 81.69 54.61 83.45C54.71 82.39 54.63 81.26 54.63 80.19L54.63 73.51C54.63 72.57 54.49 71.33 54.71 70.42Z" fill="#00BB89" fill-opacity="1.000000" fill-rule="nonzero"/>
</svg>
