<svg width="1440" height="772" viewBox="0 0 1440 772" fill="none" xmlns="http://www.w3.org/2000/svg">
<g clip-path="url(#clip0_245_62)" filter="url(#filter0_d_245_62)">
<rect width="1440" height="716" transform="translate(0 24)" fill="url(#paint0_linear_245_62)"/>
<path d="M1248.49 66.4589C1249.83 66.4285 1251.06 66.57 1252.22 67.2761C1255.04 68.9832 1255.31 74.1691 1255.82 77.0378C1258.64 77.1239 1261.74 76.9763 1264.22 78.5361C1265.28 79.2042 1266.16 80.1871 1266.35 81.4729C1266.5 82.5172 1266.14 83.4801 1265.5 84.2863C1263.34 86.9826 1259.65 87.1051 1256.5 87.4708C1255.61 91.2968 1255.11 95.0498 1252.27 97.9887C1252.01 98.0465 1251.76 98.1123 1251.5 98.1613C1250.08 98.4298 1248.94 98.2119 1247.8 97.2755C1245.51 95.3974 1245.26 91.0449 1244.96 88.2903C1242.9 87.9395 1240.46 87.7229 1238.54 86.8924C1237 86.2273 1235.05 85.0102 1234.53 83.2994C1234.25 82.3795 1234.51 81.6392 1235.03 80.8777C1236.87 78.2035 1241.22 77.7417 1244.14 77.3326C1244.74 72.885 1244.72 69.4 1248.49 66.4589Z" fill="#BFF1E4"/>
<path d="M69.4911 98.4589C70.8305 98.4285 72.058 98.57 73.2229 99.2761C76.0381 100.983 76.3138 106.169 76.818 109.038C79.6432 109.124 82.7445 108.976 85.217 110.536C86.2766 111.204 87.1634 112.187 87.3502 113.473C87.502 114.517 87.1446 115.48 86.4993 116.286C84.3386 118.983 80.6467 119.105 77.4977 119.471C76.6136 123.297 76.1078 127.05 73.272 129.989C73.0136 130.047 72.757 130.112 72.4968 130.161C71.0784 130.43 69.9351 130.212 68.7975 129.275C66.5144 127.397 66.2558 123.045 65.9603 120.29C63.8966 119.94 61.4602 119.723 59.5378 118.892C57.9976 118.227 56.0452 117.01 55.5267 115.299C55.2482 114.38 55.511 113.639 56.0323 112.878C57.8651 110.204 62.2154 109.742 65.136 109.333C65.7391 104.885 65.7194 101.4 69.4911 98.4589Z" fill="#BFF1E4"/>
<path d="M611.126 299.55C612.93 299.509 614.585 299.7 616.155 300.652C619.948 302.952 620.32 309.941 620.999 313.807C624.807 313.923 628.986 313.724 632.318 315.826C633.746 316.726 634.941 318.051 635.193 319.783C635.397 321.191 634.916 322.488 634.046 323.575C631.134 327.208 626.159 327.373 621.915 327.866C620.724 333.022 620.042 338.08 616.221 342.04C615.872 342.118 615.527 342.207 615.176 342.273C613.265 342.635 611.724 342.341 610.191 341.079C607.114 338.548 606.766 332.683 606.367 328.971C603.586 328.498 600.303 328.206 597.712 327.087C595.637 326.191 593.006 324.55 592.307 322.245C591.932 321.005 592.286 320.008 592.988 318.981C595.458 315.378 601.321 314.755 605.257 314.204C606.069 308.21 606.043 303.514 611.126 299.55Z" fill="#85E0D3"/>
<path d="M734.774 573.5C736.232 573.466 737.568 573.621 738.836 574.389C741.901 576.247 742.201 581.892 742.75 585.015C745.825 585.109 749.201 584.948 751.892 586.646C753.045 587.373 754.011 588.443 754.214 589.843C754.379 590.98 753.99 592.028 753.288 592.905C750.936 595.84 746.917 595.974 743.489 596.372C742.527 600.536 741.976 604.622 738.89 607.821C738.608 607.884 738.329 607.955 738.046 608.009C736.502 608.301 735.257 608.064 734.019 607.044C731.534 605 731.252 600.262 730.931 597.264C728.684 596.882 726.032 596.646 723.94 595.742C722.263 595.018 720.138 593.693 719.573 591.831C719.27 590.83 719.556 590.024 720.124 589.195C722.119 586.284 726.854 585.781 730.033 585.336C730.69 580.495 730.668 576.701 734.774 573.5Z" fill="#74DBD2"/>
<path d="M145.694 592.035C148.715 591.967 151.485 592.286 154.113 593.879C160.464 597.73 161.086 609.43 162.224 615.903C168.598 616.097 175.595 615.764 181.173 619.283C183.564 620.79 185.564 623.008 185.986 625.909C186.328 628.265 185.522 630.437 184.066 632.256C179.191 638.339 170.862 638.615 163.757 639.441C161.763 648.072 160.622 656.54 154.224 663.17C153.641 663.301 153.062 663.449 152.475 663.56C149.275 664.165 146.695 663.674 144.129 661.561C138.978 657.324 138.394 647.504 137.728 641.29C133.072 640.498 127.575 640.009 123.238 638.136C119.763 636.635 115.358 633.889 114.188 630.029C113.56 627.954 114.153 626.284 115.329 624.566C119.464 618.533 129.279 617.491 135.868 616.568C137.229 606.533 137.184 598.671 145.694 592.035Z" fill="#46CDCF"/>
<path d="M1307.68 351.433C1308.94 351.404 1310.1 351.538 1311.2 352.204C1313.86 353.816 1314.12 358.71 1314.59 361.417C1317.26 361.499 1320.19 361.359 1322.52 362.832C1323.52 363.462 1324.36 364.39 1324.53 365.603C1324.68 366.589 1324.34 367.498 1323.73 368.259C1321.69 370.803 1318.21 370.919 1315.23 371.264C1314.4 374.875 1313.92 378.417 1311.24 381.191C1311 381.245 1310.76 381.307 1310.51 381.354C1309.17 381.607 1308.1 381.401 1307.02 380.518C1304.87 378.745 1304.62 374.637 1304.34 372.038C1302.4 371.706 1300.1 371.502 1298.28 370.718C1296.83 370.09 1294.99 368.942 1294.5 367.327C1294.23 366.459 1294.48 365.76 1294.97 365.042C1296.7 362.518 1300.81 362.082 1303.57 361.696C1304.14 357.498 1304.12 354.209 1307.68 351.433Z" fill="#D8D8D8"/>
<path d="M834.495 477.112C836.377 477.978 837.433 480.93 838.129 482.787C838.773 484.506 839.178 487.12 838.227 488.799C838.136 488.958 838.016 489.1 837.911 489.25C836.924 489.329 837.206 489.508 836.576 488.955C834.345 486.999 832.656 481.401 831.838 478.512L834.495 477.112Z" fill="#EDFBF7"/>
<path d="M833.972 474.131C837.077 472.159 841.91 469.451 845.633 470.168L846.381 470.858C846.327 471.995 846.166 472.471 845.3 473.263C843.424 474.982 837.48 476.9 834.842 476.985C834.531 476.039 834.251 475.087 833.972 474.131Z" fill="#EDFBF7"/>
<path d="M831.569 478.476C829.395 480.198 823.956 482.848 821.257 482.873C820.081 482.884 819.604 482.695 818.798 481.876L818.952 480.808C821.452 477.715 826.706 476.524 830.476 475.643L831.569 478.476Z" fill="#EDFBF7"/>
<path d="M830.653 475.398C828.935 471.48 826.464 467.2 826.771 462.826L827.317 461.892C828.376 461.896 828.789 462.085 829.523 462.883C831.838 465.396 833.446 470.765 833.772 474.119L830.653 475.398Z" fill="#EDFBF7"/>
<ellipse cx="155" cy="193.5" rx="637" ry="634.5" fill="#FEFFFF"/>
<rect x="1357" y="26" width="11" height="714" fill="#FEFFFF"/>
</g>
<defs>
<filter id="filter0_d_245_62" x="-27.7" y="0.299999" width="1495.4" height="771.4" filterUnits="userSpaceOnUse" color-interpolation-filters="sRGB">
<feFlood flood-opacity="0" result="BackgroundImageFix"/>
<feColorMatrix in="SourceAlpha" type="matrix" values="0 0 0 0 0 0 0 0 0 0 0 0 0 0 0 0 0 0 127 0" result="hardAlpha"/>
<feOffset dy="4"/>
<feGaussianBlur stdDeviation="13.85"/>
<feComposite in2="hardAlpha" operator="out"/>
<feColorMatrix type="matrix" values="0 0 0 0 0.239216 0 0 0 0 0.521569 0 0 0 0 0.662745 0 0 0 0.3 0"/>
<feBlend mode="normal" in2="BackgroundImageFix" result="effect1_dropShadow_245_62"/>
<feBlend mode="normal" in="SourceGraphic" in2="effect1_dropShadow_245_62" result="shape"/>
</filter>
<linearGradient id="paint0_linear_245_62" x1="692.5" y1="-70" x2="673.425" y2="970.288" gradientUnits="userSpaceOnUse">
<stop stop-color="#ABEDD8" stop-opacity="0"/>
<stop offset="0.488154" stop-color="#ABEDD8"/>
<stop offset="0.978154" stop-color="#46CDCF"/>
</linearGradient>
<clipPath id="clip0_245_62">
<rect width="1440" height="716" fill="white" transform="translate(0 24)"/>
</clipPath>
</defs>
</svg>
