<svg width="215.000000" height="62.000000" viewBox="0 0 215 62" fill="none" xmlns="http://www.w3.org/2000/svg" xmlns:xlink="http://www.w3.org/1999/xlink">
	<desc>
			Created with Pixso.
	</desc>
	<defs>
		<clipPath id="clip4_178">
			<rect id="Frame 3" rx="4.500000" width="214.000000" height="61.000000" transform="translate(0.500000 0.500000)" fill="white" fill-opacity="0"/>
		</clipPath>
		<linearGradient x1="106.999985" y1="0.000000" x2="106.999985" y2="62.000000" id="paint_linear_4_178_0" gradientUnits="userSpaceOnUse">
			<stop stop-color="#46CDCF"/>
			<stop offset="1.000000" stop-color="#3D84A8"/>
		</linearGradient>
	</defs>
	<rect id="Frame 3" rx="4.500000" width="214.000000" height="61.000000" transform="translate(0.500000 0.500000)" fill="url(#paint_linear_4_178_0)" fill-opacity="1.000000"/>
	<g clip-path="url(#clip4_178)">
		<path id="Каталог" d="M52.51 42L59.49 42L52 30.06L59.04 19.14L52.26 19.14L45.73 30.22L45.73 19.14L39.52 19.14L39.52 42L45.73 42L45.73 30.41L52.51 42ZM75.36 25.64Q73.47 23.98 70.11 23.98Q67.71 23.98 65.78 24.38Q63.84 24.78 62.31 25.58L64.07 29.61Q65.38 29.03 66.66 28.67Q67.94 28.3 69 28.3Q69.97 28.3 70.53 28.78Q70.55 28.79 70.56 28.8Q71.14 29.29 71.14 30.47L71.14 30.73L68.19 30.82Q64.45 30.99 62.48 32.36Q61.88 32.78 61.46 33.34Q60.51 34.61 60.51 36.59Q60.51 39.35 61.89 40.75Q61.97 40.83 62.05 40.91Q62.53 41.35 63.08 41.65Q64.31 42.32 65.89 42.32Q67.36 42.32 68.39 42.04Q69.41 41.77 70.19 41.18Q70.98 40.59 71.71 39.66L71.84 39.66L73.03 42L77.25 42L77.25 30.38Q77.25 27.99 76.11 26.45Q75.78 26.01 75.36 25.64ZM114.6 25.64Q112.7 23.98 109.35 23.98Q106.95 23.98 105.01 24.38Q103.07 24.78 101.54 25.58L103.3 29.61Q104.61 29.03 105.89 28.67Q107.17 28.3 108.23 28.3Q109.2 28.3 109.77 28.78Q109.78 28.79 109.79 28.8Q110.37 29.29 110.37 30.47L110.37 30.73L107.42 30.82Q103.68 30.99 101.71 32.36Q101.11 32.78 100.7 33.34Q99.74 34.61 99.74 36.59Q99.74 39.35 101.12 40.75Q101.2 40.83 101.28 40.91Q101.76 41.35 102.32 41.65Q103.54 42.32 105.13 42.32Q106.6 42.32 107.62 42.04Q108.64 41.77 109.42 41.18Q110.21 40.59 110.95 39.66L111.07 39.66L112.26 42L116.49 42L116.49 30.38Q116.49 27.99 115.34 26.45Q115.02 26.01 114.6 25.64ZM157.47 39.6Q159.52 37.25 159.52 33.1Q159.52 30.15 158.38 28.12Q157.67 26.85 156.63 25.96Q156.01 25.43 155.28 25.03Q153.31 23.98 150.76 23.98Q147.23 23.98 144.99 25.68Q144.59 25.98 144.23 26.35Q144.02 26.55 143.84 26.77Q141.86 29.09 141.86 33.1Q141.86 36.04 142.99 38.11Q143.72 39.43 144.79 40.34Q145.4 40.86 146.12 41.25Q146.14 41.26 146.15 41.27Q148.13 42.32 150.66 42.32Q154.08 42.32 156.3 40.68Q156.75 40.34 157.16 39.93Q157.32 39.77 157.47 39.6ZM92 28.85L97.83 28.85L97.83 24.3L80.06 24.3L80.06 28.85L85.89 28.85L85.89 42L92 42L92 28.85ZM132.29 42L138.41 42L138.41 24.3L123.2 24.3Q122.98 27.89 122.7 30.27Q122.44 32.65 122.15 34.13Q121.86 35.6 121.55 36.33Q121.25 37.07 120.9 37.32Q120.61 37.54 120.3 37.57Q120.23 37.58 120.16 37.58Q119.75 37.58 119.43 37.52Q119.11 37.45 118.79 37.29L118.79 41.84Q119.97 42.32 121.54 42.32Q123.69 42.32 125.04 41.28Q125.21 41.14 125.38 40.99Q126.79 39.66 127.54 36.7Q128.29 33.74 128.71 28.85L132.29 28.85L132.29 42ZM176.17 28.85L176.17 24.3L163.01 24.3L163.01 42L169.13 42L169.13 28.85L176.17 28.85ZM148.67 36.57Q148.07 35.37 148.07 33.1Q148.07 30.82 148.69 29.67Q148.97 29.16 149.4 28.88Q149.93 28.53 150.7 28.53Q151.56 28.53 152.11 28.94Q152.48 29.21 152.72 29.67Q153.31 30.82 153.31 33.1Q153.31 35.37 152.72 36.57Q152.45 37.11 152.02 37.41Q151.5 37.77 150.73 37.77Q149.91 37.77 149.35 37.38Q148.94 37.09 148.67 36.57ZM67.41 34.75Q68.1 34.22 69.76 34.15L71.17 34.09L71.17 35.46Q71.17 36.14 70.88 36.67Q70.7 37.01 70.39 37.29Q70.1 37.55 69.76 37.71Q69.19 38 68.48 38Q67.78 38 67.32 37.66Q67.26 37.62 67.2 37.57Q67.17 37.54 67.14 37.5Q66.72 37.07 66.72 36.24Q66.72 35.63 67 35.2Q67.16 34.94 67.41 34.75ZM106.64 34.75Q107.33 34.22 108.99 34.15L110.4 34.09L110.4 35.46Q110.4 36.14 110.12 36.67Q109.93 37.01 109.62 37.29Q109.33 37.55 109 37.71Q108.42 38 107.71 38Q107.01 38 106.55 37.66Q106.49 37.62 106.43 37.57Q106.4 37.54 106.37 37.5Q105.95 37.07 105.95 36.24Q105.95 35.63 106.23 35.2Q106.39 34.94 106.64 34.75Z" fill="#FFFFFF" fill-opacity="1.000000" fill-rule="evenodd"/>
	</g>
</svg>
